{"title":"BangBus.13.10.09.Megan.Mathews.XXX.720p.MP4-KTR","uid":9033320,"size":883545342,"categoryP":"porn","categoryS":"movie_clips","magnet":"?xt=urn:btih:d81816d50ac18e8996396d630e85fa1474c43316&amp;dn=BangBus.13.10.09.Megan.Mathews.XXX.720p.MP4-KTR&amp;tr=udp%3A%2F%2Ftracker.openbittorrent.com%3A80&amp;tr=udp%3A%2F%2Fopen.demonii.com%3A1337&amp;tr=udp%3A%2F%2Ftracker.coppersurfer.tk%3A6969&amp;tr=udp%3A%2F%2Fexodus.desync.com%3A6969","seeders":0,"leechers":0,"uploader":null,"files":2,"time":1381460393,"description":" &lt;a href=&quot;http://bayimg.com/EAABjAAFn&quot; rel=&quot;nofollow&quot; target=&quot;_NEW&quot;&gt;http://bayimg.com/EAABjAAFn&lt;/a&gt;\n\nDescription:\nWe met Megan today on the beach on her way to the gym. She was looking so fucking hot in her gym clothes we had to try and convince her to get in. We jumped into the sex questions immediately because we had already paid her $200 just to get in. She was pretty cool and answered them all but we went for the kill and asked her to fuck Brick for $2000 and she was like FUCK IT! You're gonna love hearing this young girl moan!\n\nFormat : MPEG-4\nFormat profile : Base Media\nCodec ID : isom\nFile size : 843 MiB\nDuration : 38mn 32s\nOverall bit rate mode : Variable\nOverall bit rate : 3 056 Kbps\nEncoded date : UTC 2013-10-08 16:03:23\nTagged date : UTC 2013-10-08 16:03:23\nWriting application : Lavf53.32.100\n\nVideo\nID : 1\nFormat : AVC\nFormat/Info : Advanced Video Codec\nFormat profile : &lt;a class=&quot;__cf_email__&quot; href=&quot;/cdn-cgi/l/email-protection&quot; data-cfemail=&quot;f8b5999196b8b4ccd6c8&quot;&gt;[email&amp;#160;protected]&lt;/a&gt;&lt;script cf-hash='f9e31' type=&quot;text/javascript&quot;&gt;\n/* &lt;![CDATA[ */!function(){try{var t=&quot;currentScript&quot;in document?document.currentScript:function(){for(var t=document.getElementsByTagName(&quot;script&quot;),e=t.length;e--;)if(t[e].getAttribute(&quot;cf-hash&quot;))return t[e]}();if(t&amp;&amp;t.previousSibling){var e,r,n,i,c=t.previousSibling,a=c.getAttribute(&quot;data-cfemail&quot;);if(a){for(e=&quot;&quot;,r=parseInt(a.substr(0,2),16),n=2;a.length-n;n+=2)i=parseInt(a.substr(n,2),16)^r,e+=String.fromCharCode(i);e=document.createTextNode(e),c.parentNode.replaceChild(e,c)}}}catch(u){}}();/* ]]&gt; */&lt;/script&gt;\nFormat settings, CABAC : Yes\nFormat settings, ReFrames : 6 frames\nCodec ID : avc1\nCodec ID/Info : Advanced Video Coding\nDuration : 38mn 32s\nBit rate : 3 000 Kbps\nWidth : 1 280 pixels\nHeight : 720 pixels\nDisplay aspect ratio : 16:9\nFrame rate mode : Constant\nFrame rate : 29.970 fps\nColor space : YUV\nChroma subsampling : 4:2:0\nBit depth : 8 bits\nScan type : Progressive\nBits/(Pixel*Frame) : 0.109\nStream size : 821 MiB (97%)\nWriting library : x264 core 124 r2019+178 69a0443\n\nEncoded date : UTC 2013-10-08 16:03:23\nTagged date : UTC 2013-10-08 16:03:23\n\nAudio\nID : 2\nFormat : AAC\nFormat/Info : Advanced Audio Codec\nFormat profile : LC\nCodec ID : 40\nDuration : 38mn 32s\nBit rate mode : Variable\nBit rate : 70.5 Kbps\nMaximum bit rate : 96.0 Kbps\nChannel(s) : 2 channels\nChannel positions : Front: L R\nSampling rate : 44.1 KHz\nCompression mode : Lossy\nDelay relative to video : 67ms\nStream size : 19.4 MiB (2%)\nLanguage : English\nEncoded date : UTC 2013-10-08 16:03:23\nTagged date : UTC 2013-10-08 16:03:23","torrent":{"xt":"urn:btih:d81816d50ac18e8996396d630e85fa1474c43316","amp;dn":"BangBus.13.10.09.Megan.Mathews.XXX.720p.MP4-KTR","amp;tr":["udp%3A%2F%2Ftracker.openbittorrent.com%3A80","udp%3A%2F%2Fopen.demonii.com%3A1337","udp%3A%2F%2Ftracker.coppersurfer.tk%3A6969","udp%3A%2F%2Fexodus.desync.com%3A6969"],"infoHash":"d81816d50ac18e8996396d630e85fa1474c43316","infoHashBuffer":{"type":"Buffer","data":[216,24,22,213,10,193,142,137,150,57,109,99,14,133,250,20,116,196,51,22]},"announce":[],"urlList":[]}}